<svg xmlns="http://www.w3.org/2000/svg" width="512" height="512" viewBox="0 0 512 512" shape-rendering="crispEdges"><rect width="512" height="512" rx="72" fill="#fffdf9"/><rect x="20" y="20" width="472" height="472" rx="56" fill="none" stroke="#161616" stroke-width="14"/><g transform="translate(0,8)"><rect x="224" y="32" width="32" height="32" fill="#d2440f"/><rect x="256" y="32" width="32" height="32" fill="#d2440f"/><rect x="224" y="64" width="32" height="32" fill="#161616"/><rect x="256" y="64" width="32" height="32" fill="#161616"/><rect x="96" y="96" width="32" height="32" fill="#161616"/><rect x="128" y="96" width="32" height="32" fill="#161616"/><rect x="160" y="96" width="32" height="32" fill="#161616"/><rect x="192" y="96" width="32" height="32" fill="#161616"/><rect x="224" y="96" width="32" height="32" fill="#161616"/><rect x="256" y="96" width="32" height="32" fill="#161616"/><rect x="288" y="96" width="32" height="32" fill="#161616"/><rect x="320" y="96" width="32" height="32" fill="#161616"/><rect x="352" y="96" width="32" height="32" fill="#161616"/><rect x="384" y="96" width="32" height="32" fill="#161616"/><rect x="64" y="128" width="32" height="32" fill="#161616"/><rect x="96" y="128" width="32" height="32" fill="#ff5c1a"/><rect x="128" y="128" width="32" height="32" fill="#ff5c1a"/><rect x="160" y="128" width="32" height="32" fill="#ff5c1a"/><rect x="192" y="128" width="32" height="32" fill="#ff5c1a"/><rect x="224" y="128" width="32" height="32" fill="#ff5c1a"/><rect x="256" y="128" width="32" height="32" fill="#ff5c1a"/><rect x="288" y="128" width="32" height="32" fill="#ff5c1a"/><rect x="320" y="128" width="32" height="32" fill="#ff5c1a"/><rect x="352" y="128" width="32" height="32" fill="#ff5c1a"/><rect x="384" y="128" width="32" height="32" fill="#ff5c1a"/><rect x="416" y="128" width="32" height="32" fill="#161616"/><rect x="32" y="160" width="32" height="32" fill="#161616"/><rect x="64" y="160" width="32" height="32" fill="#ff5c1a"/><rect x="96" y="160" width="32" height="32" fill="#ff5c1a"/><rect x="128" y="160" width="32" height="32" fill="#ff5c1a"/><rect x="160" y="160" width="32" height="32" fill="#ff5c1a"/><rect x="192" y="160" width="32" height="32" fill="#ff5c1a"/><rect x="224" y="160" width="32" height="32" fill="#ff5c1a"/><rect x="256" y="160" width="32" height="32" fill="#ff5c1a"/><rect x="288" y="160" width="32" height="32" fill="#ff5c1a"/><rect x="320" y="160" width="32" height="32" fill="#ff5c1a"/><rect x="352" y="160" width="32" height="32" fill="#ff5c1a"/><rect x="384" y="160" width="32" height="32" fill="#ff5c1a"/><rect x="416" y="160" width="32" height="32" fill="#ff5c1a"/><rect x="448" y="160" width="32" height="32" fill="#161616"/><rect x="32" y="192" width="32" height="32" fill="#161616"/><rect x="64" y="192" width="32" height="32" fill="#ff5c1a"/><rect x="96" y="192" width="32" height="32" fill="#ff5c1a"/><rect x="128" y="192" width="32" height="32" fill="#ffffff"/><rect x="160" y="192" width="32" height="32" fill="#ffffff"/><rect x="192" y="192" width="32" height="32" fill="#ff5c1a"/><rect x="224" y="192" width="32" height="32" fill="#ff5c1a"/><rect x="256" y="192" width="32" height="32" fill="#ff5c1a"/><rect x="288" y="192" width="32" height="32" fill="#ff5c1a"/><rect x="320" y="192" width="32" height="32" fill="#ffffff"/><rect x="352" y="192" width="32" height="32" fill="#ffffff"/><rect x="384" y="192" width="32" height="32" fill="#ff5c1a"/><rect x="416" y="192" width="32" height="32" fill="#ff5c1a"/><rect x="448" y="192" width="32" height="32" fill="#161616"/><rect x="32" y="224" width="32" height="32" fill="#161616"/><rect x="64" y="224" width="32" height="32" fill="#ff5c1a"/><rect x="96" y="224" width="32" height="32" fill="#ff5c1a"/><rect x="128" y="224" width="32" height="32" fill="#ffffff"/><rect x="160" y="224" width="32" height="32" fill="#161616"/><rect x="192" y="224" width="32" height="32" fill="#ff5c1a"/><rect x="224" y="224" width="32" height="32" fill="#ff5c1a"/><rect x="256" y="224" width="32" height="32" fill="#ff5c1a"/><rect x="288" y="224" width="32" height="32" fill="#ff5c1a"/><rect x="320" y="224" width="32" height="32" fill="#ffffff"/><rect x="352" y="224" width="32" height="32" fill="#161616"/><rect x="384" y="224" width="32" height="32" fill="#ff5c1a"/><rect x="416" y="224" width="32" height="32" fill="#ff5c1a"/><rect x="448" y="224" width="32" height="32" fill="#161616"/><rect x="32" y="256" width="32" height="32" fill="#161616"/><rect x="64" y="256" width="32" height="32" fill="#ff5c1a"/><rect x="96" y="256" width="32" height="32" fill="#ff5c1a"/><rect x="128" y="256" width="32" height="32" fill="#ff5c1a"/><rect x="160" y="256" width="32" height="32" fill="#ff5c1a"/><rect x="192" y="256" width="32" height="32" fill="#ff5c1a"/><rect x="224" y="256" width="32" height="32" fill="#ff5c1a"/><rect x="256" y="256" width="32" height="32" fill="#ff5c1a"/><rect x="288" y="256" width="32" height="32" fill="#ff5c1a"/><rect x="320" y="256" width="32" height="32" fill="#ff5c1a"/><rect x="352" y="256" width="32" height="32" fill="#ff5c1a"/><rect x="384" y="256" width="32" height="32" fill="#ff5c1a"/><rect x="416" y="256" width="32" height="32" fill="#ff5c1a"/><rect x="448" y="256" width="32" height="32" fill="#161616"/><rect x="32" y="288" width="32" height="32" fill="#161616"/><rect x="64" y="288" width="32" height="32" fill="#ff5c1a"/><rect x="96" y="288" width="32" height="32" fill="#ff5c1a"/><rect x="128" y="288" width="32" height="32" fill="#161616"/><rect x="160" y="288" width="32" height="32" fill="#161616"/><rect x="192" y="288" width="32" height="32" fill="#161616"/><rect x="224" y="288" width="32" height="32" fill="#161616"/><rect x="256" y="288" width="32" height="32" fill="#161616"/><rect x="288" y="288" width="32" height="32" fill="#161616"/><rect x="320" y="288" width="32" height="32" fill="#161616"/><rect x="352" y="288" width="32" height="32" fill="#ff5c1a"/><rect x="384" y="288" width="32" height="32" fill="#ff5c1a"/><rect x="416" y="288" width="32" height="32" fill="#ff5c1a"/><rect x="448" y="288" width="32" height="32" fill="#161616"/><rect x="32" y="320" width="32" height="32" fill="#161616"/><rect x="64" y="320" width="32" height="32" fill="#ff5c1a"/><rect x="96" y="320" width="32" height="32" fill="#ff5c1a"/><rect x="128" y="320" width="32" height="32" fill="#ff5c1a"/><rect x="160" y="320" width="32" height="32" fill="#ff5c1a"/><rect x="192" y="320" width="32" height="32" fill="#ff5c1a"/><rect x="224" y="320" width="32" height="32" fill="#ff5c1a"/><rect x="256" y="320" width="32" height="32" fill="#ff5c1a"/><rect x="288" y="320" width="32" height="32" fill="#ff5c1a"/><rect x="320" y="320" width="32" height="32" fill="#ff5c1a"/><rect x="352" y="320" width="32" height="32" fill="#ff5c1a"/><rect x="384" y="320" width="32" height="32" fill="#ff5c1a"/><rect x="416" y="320" width="32" height="32" fill="#ff5c1a"/><rect x="448" y="320" width="32" height="32" fill="#161616"/><rect x="64" y="352" width="32" height="32" fill="#161616"/><rect x="96" y="352" width="32" height="32" fill="#ff5c1a"/><rect x="128" y="352" width="32" height="32" fill="#ff5c1a"/><rect x="160" y="352" width="32" height="32" fill="#ff5c1a"/><rect x="192" y="352" width="32" height="32" fill="#ff5c1a"/><rect x="224" y="352" width="32" height="32" fill="#ff5c1a"/><rect x="256" y="352" width="32" height="32" fill="#ff5c1a"/><rect x="288" y="352" width="32" height="32" fill="#ff5c1a"/><rect x="320" y="352" width="32" height="32" fill="#ff5c1a"/><rect x="352" y="352" width="32" height="32" fill="#ff5c1a"/><rect x="384" y="352" width="32" height="32" fill="#ff5c1a"/><rect x="416" y="352" width="32" height="32" fill="#161616"/><rect x="96" y="384" width="32" height="32" fill="#161616"/><rect x="128" y="384" width="32" height="32" fill="#161616"/><rect x="160" y="384" width="32" height="32" fill="#161616"/><rect x="192" y="384" width="32" height="32" fill="#161616"/><rect x="224" y="384" width="32" height="32" fill="#161616"/><rect x="256" y="384" width="32" height="32" fill="#161616"/><rect x="288" y="384" width="32" height="32" fill="#161616"/><rect x="320" y="384" width="32" height="32" fill="#161616"/><rect x="352" y="384" width="32" height="32" fill="#161616"/><rect x="384" y="384" width="32" height="32" fill="#161616"/><rect x="160" y="416" width="32" height="32" fill="#161616"/><rect x="192" y="416" width="32" height="32" fill="#161616"/><rect x="288" y="416" width="32" height="32" fill="#161616"/><rect x="320" y="416" width="32" height="32" fill="#161616"/><rect x="128" y="448" width="32" height="32" fill="#161616"/><rect x="160" y="448" width="32" height="32" fill="#161616"/><rect x="320" y="448" width="32" height="32" fill="#161616"/><rect x="352" y="448" width="32" height="32" fill="#161616"/></g></svg>